<mxfile host="app.diagrams.net" modified="2024-05-30T17:47:03.435Z" agent="Mozilla/5.0 (Windows NT 10.0; Win64; x64) AppleWebKit/537.36 (KHTML, like Gecko) Chrome/124.0.0.0 Safari/537.36" etag="Is3ZgThXAxdLTqUkAJfA" version="24.4.4" type="device">
  <diagram name="Страница — 1" id="UT-t2g85V6cZyAVYQSvD">
    <mxGraphModel dx="524" dy="541" grid="1" gridSize="10" guides="1" tooltips="1" connect="1" arrows="1" fold="1" page="1" pageScale="1" pageWidth="827" pageHeight="1169" math="0" shadow="0">
      <root>
        <mxCell id="0" />
        <mxCell id="1" parent="0" />
        <mxCell id="tw1-ggg551FF3YLYkVTf-14" style="edgeStyle=orthogonalEdgeStyle;rounded=0;orthogonalLoop=1;jettySize=auto;html=1;" edge="1" parent="1" source="tw1-ggg551FF3YLYkVTf-1" target="tw1-ggg551FF3YLYkVTf-2">
          <mxGeometry relative="1" as="geometry" />
        </mxCell>
        <mxCell id="tw1-ggg551FF3YLYkVTf-1" value="" style="ellipse;whiteSpace=wrap;html=1;aspect=fixed;" vertex="1" parent="1">
          <mxGeometry x="235" y="50" width="50" height="50" as="geometry" />
        </mxCell>
        <mxCell id="tw1-ggg551FF3YLYkVTf-15" style="edgeStyle=orthogonalEdgeStyle;rounded=0;orthogonalLoop=1;jettySize=auto;html=1;" edge="1" parent="1" source="tw1-ggg551FF3YLYkVTf-2" target="tw1-ggg551FF3YLYkVTf-3">
          <mxGeometry relative="1" as="geometry" />
        </mxCell>
        <mxCell id="tw1-ggg551FF3YLYkVTf-2" value="Получение параметров для визуализации из запроса" style="rounded=0;whiteSpace=wrap;html=1;" vertex="1" parent="1">
          <mxGeometry x="160" y="120" width="200" height="60" as="geometry" />
        </mxCell>
        <mxCell id="tw1-ggg551FF3YLYkVTf-16" style="edgeStyle=orthogonalEdgeStyle;rounded=0;orthogonalLoop=1;jettySize=auto;html=1;" edge="1" parent="1" source="tw1-ggg551FF3YLYkVTf-3" target="tw1-ggg551FF3YLYkVTf-4">
          <mxGeometry relative="1" as="geometry" />
        </mxCell>
        <mxCell id="tw1-ggg551FF3YLYkVTf-3" value="Построение SQL-запроса с параметрами" style="rounded=0;whiteSpace=wrap;html=1;" vertex="1" parent="1">
          <mxGeometry x="160" y="200" width="200" height="60" as="geometry" />
        </mxCell>
        <mxCell id="tw1-ggg551FF3YLYkVTf-17" style="edgeStyle=orthogonalEdgeStyle;rounded=0;orthogonalLoop=1;jettySize=auto;html=1;" edge="1" parent="1" source="tw1-ggg551FF3YLYkVTf-4" target="tw1-ggg551FF3YLYkVTf-8">
          <mxGeometry relative="1" as="geometry" />
        </mxCell>
        <mxCell id="tw1-ggg551FF3YLYkVTf-4" value="Округление значений" style="rounded=0;whiteSpace=wrap;html=1;verticalAlign=top;" vertex="1" parent="1">
          <mxGeometry x="160" y="280" width="200" height="200" as="geometry" />
        </mxCell>
        <mxCell id="tw1-ggg551FF3YLYkVTf-5" value="Умножение каждого значения на 2" style="rounded=0;whiteSpace=wrap;html=1;" vertex="1" parent="1">
          <mxGeometry x="180" y="310" width="160" height="40" as="geometry" />
        </mxCell>
        <mxCell id="tw1-ggg551FF3YLYkVTf-6" value="Округление результата до ближайшего целого числа" style="rounded=0;whiteSpace=wrap;html=1;" vertex="1" parent="1">
          <mxGeometry x="180" y="360" width="160" height="40" as="geometry" />
        </mxCell>
        <mxCell id="tw1-ggg551FF3YLYkVTf-7" value="Деление округленного значения на 2, чтобы вернуть его в исходный диапазон" style="rounded=0;whiteSpace=wrap;html=1;" vertex="1" parent="1">
          <mxGeometry x="180" y="410" width="160" height="60" as="geometry" />
        </mxCell>
        <mxCell id="tw1-ggg551FF3YLYkVTf-18" style="edgeStyle=orthogonalEdgeStyle;rounded=0;orthogonalLoop=1;jettySize=auto;html=1;" edge="1" parent="1" source="tw1-ggg551FF3YLYkVTf-8" target="tw1-ggg551FF3YLYkVTf-12">
          <mxGeometry relative="1" as="geometry" />
        </mxCell>
        <mxCell id="tw1-ggg551FF3YLYkVTf-8" value="Группировка данных" style="rounded=0;whiteSpace=wrap;html=1;verticalAlign=top;" vertex="1" parent="1">
          <mxGeometry x="160" y="500" width="200" height="180" as="geometry" />
        </mxCell>
        <mxCell id="tw1-ggg551FF3YLYkVTf-9" value="Объединение строк с одинаковыми значениями" style="rounded=0;whiteSpace=wrap;html=1;" vertex="1" parent="1">
          <mxGeometry x="180" y="530" width="160" height="40" as="geometry" />
        </mxCell>
        <mxCell id="tw1-ggg551FF3YLYkVTf-10" value="Подсчет количества строк в каждой группе" style="rounded=0;whiteSpace=wrap;html=1;" vertex="1" parent="1">
          <mxGeometry x="180" y="580" width="160" height="40" as="geometry" />
        </mxCell>
        <mxCell id="tw1-ggg551FF3YLYkVTf-11" value="Создание столбца, содержащего подсчеты" style="rounded=0;whiteSpace=wrap;html=1;" vertex="1" parent="1">
          <mxGeometry x="180" y="630" width="160" height="40" as="geometry" />
        </mxCell>
        <mxCell id="tw1-ggg551FF3YLYkVTf-19" style="edgeStyle=orthogonalEdgeStyle;rounded=0;orthogonalLoop=1;jettySize=auto;html=1;" edge="1" parent="1" source="tw1-ggg551FF3YLYkVTf-12" target="tw1-ggg551FF3YLYkVTf-13">
          <mxGeometry relative="1" as="geometry" />
        </mxCell>
        <mxCell id="tw1-ggg551FF3YLYkVTf-12" value="Преобразование DataFrame в подходящий формат" style="rounded=0;whiteSpace=wrap;html=1;" vertex="1" parent="1">
          <mxGeometry x="160" y="700" width="200" height="60" as="geometry" />
        </mxCell>
        <mxCell id="tw1-ggg551FF3YLYkVTf-13" value="" style="ellipse;whiteSpace=wrap;html=1;aspect=fixed;" vertex="1" parent="1">
          <mxGeometry x="235" y="780" width="50" height="50" as="geometry" />
        </mxCell>
      </root>
    </mxGraphModel>
  </diagram>
</mxfile>
